<svg xmlns="http://www.w3.org/2000/svg" width="240" height="240" viewBox="0 0 240 240"><rect width="240" height="240" fill="white"/><g fill="black"><rect x="4" y="4" width="12" height="12"/><rect x="24" y="4" width="12" height="12"/><rect x="44" y="4" width="12" height="12"/><rect x="64" y="4" width="12" height="12"/><rect x="104" y="4" width="12" height="12"/><rect x="164" y="4" width="12" height="12"/><rect x="184" y="4" width="12" height="12"/><rect x="204" y="4" width="12" height="12"/><rect x="224" y="4" width="12" height="12"/><rect x="4" y="24" width="12" height="12"/><rect x="24" y="24" width="12" height="12"/><rect x="44" y="24" width="12" height="12"/><rect x="64" y="24" width="12" height="12"/><rect x="104" y="24" width="12" height="12"/><rect x="164" y="24" width="12" height="12"/><rect x="184" y="24" width="12" height="12"/><rect x="204" y="24" width="12" height="12"/><rect x="224" y="24" width="12" height="12"/><rect x="4" y="44" width="12" height="12"/><rect x="24" y="44" width="12" height="12"/><rect x="44" y="44" width="12" height="12"/><rect x="124" y="44" width="12" height="12"/><rect x="144" y="44" width="12" height="12"/><rect x="184" y="44" width="12" height="12"/><rect x="204" y="44" width="12" height="12"/><rect x="224" y="44" width="12" height="12"/><rect x="24" y="84" width="12" height="12"/><rect x="44" y="84" width="12" height="12"/><rect x="124" y="84" width="12" height="12"/><rect x="144" y="84" width="12" height="12"/><rect x="224" y="84" width="12" height="12"/><rect x="4" y="104" width="12" height="12"/><rect x="64" y="104" width="12" height="12"/><rect x="104" y="104" width="12" height="12"/><rect x="164" y="104" width="12" height="12"/><rect x="204" y="104" width="12" height="12"/><rect x="4" y="124" width="12" height="12"/><rect x="64" y="124" width="12" height="12"/><rect x="104" y="124" width="12" height="12"/><rect x="164" y="124" width="12" height="12"/><rect x="204" y="124" width="12" height="12"/><rect x="24" y="144" width="12" height="12"/><rect x="44" y="144" width="12" height="12"/><rect x="124" y="144" width="12" height="12"/><rect x="144" y="144" width="12" height="12"/><rect x="224" y="144" width="12" height="12"/><rect x="4" y="184" width="12" height="12"/><rect x="24" y="184" width="12" height="12"/><rect x="44" y="184" width="12" height="12"/><rect x="124" y="184" width="12" height="12"/><rect x="144" y="184" width="12" height="12"/><rect x="224" y="184" width="12" height="12"/><rect x="4" y="204" width="12" height="12"/><rect x="24" y="204" width="12" height="12"/><rect x="44" y="204" width="12" height="12"/><rect x="64" y="204" width="12" height="12"/><rect x="104" y="204" width="12" height="12"/><rect x="164" y="204" width="12" height="12"/><rect x="204" y="204" width="12" height="12"/><rect x="4" y="224" width="12" height="12"/><rect x="24" y="224" width="12" height="12"/><rect x="44" y="224" width="12" height="12"/><rect x="64" y="224" width="12" height="12"/><rect x="104" y="224" width="12" height="12"/><rect x="164" y="224" width="12" height="12"/><rect x="204" y="224" width="12" height="12"/></g></svg>